<svg width="335" height="200" viewBox="0 0 335 200" fill="none" xmlns="http://www.w3.org/2000/svg">
<g clip-path="url(#clip0_1_219)">
<rect width="335" height="200" rx="20" fill="#242424"/>
<path d="M102.619 -160.671C81.7667 -141.96 46.0566 -101.781 43.5909 -54.3574C41.0948 -6.34782 60.7129 45.3885 101.852 51.6404C136.904 56.9672 167.242 4.73015 155.771 -21.391C144.92 -46.0997 95.8275 -24.2163 74.3649 -7.85725C44.9538 14.5603 -2.61941 79.5069 16.3309 137.69C29.2962 177.498 69.1453 223.899 121.784 214.547C176.793 204.774 214.914 64.4836 164.683 81.9244C131.297 93.5161 111.192 128.127 121.784 169.529C131.962 209.313 188.455 280.529 312.455 297.029" stroke="#595B5F" stroke-width="0.5" stroke-linecap="round"/>
<circle cx="301" cy="34" r="12" fill="#515558"/>
<circle cx="287" cy="34" r="12" fill="#E5F240" fill-opacity="0.7"/>
<path d="M42.785 108H45.4383V105.024H47.5223V102.736H45.4383V92.499H41.5174C39.4119 95.7002 37.2098 99.2666 35.201 102.758V105.024H42.785V108ZM37.7791 102.801V102.64C39.283 100.008 41.077 97.1396 42.6668 94.7119H42.8279V102.801H37.7791ZM55.7193 108.312C59.1568 108.312 61.5094 106.41 61.5094 103.682V103.66C61.5094 101.512 59.9947 100.158 57.7174 99.9434V99.8896C59.5758 99.5029 60.9615 98.2246 60.9615 96.3018V96.2803C60.9615 93.8525 58.8883 92.1875 55.6979 92.1875C52.5719 92.1875 50.4557 93.9492 50.2193 96.6348L50.2086 96.7529H52.7867L52.7975 96.6455C52.9371 95.2598 54.065 94.3896 55.6979 94.3896C57.3521 94.3896 58.3082 95.2275 58.3082 96.6455V96.667C58.3082 98.0205 57.1695 98.9873 55.4615 98.9873H53.6891V101.05H55.5152C57.5025 101.05 58.7057 101.952 58.7057 103.585V103.606C58.7057 105.046 57.5133 106.045 55.7193 106.045C53.9039 106.045 52.69 105.11 52.5396 103.8L52.5289 103.682H49.8863L49.8971 103.811C50.1012 106.464 52.3248 108.312 55.7193 108.312ZM64.2064 108H74.9701V105.701H67.9555V105.476L71.06 102.468C73.8852 99.75 74.7338 98.3535 74.7338 96.5918V96.5596C74.7338 93.9492 72.5639 92.1123 69.5453 92.1123C66.3119 92.1123 64.0561 94.1318 64.0561 97.0215L64.0668 97.0537L66.6449 97.0645L66.6557 97.0215C66.6557 95.4209 67.7621 94.3359 69.4057 94.3359C71.017 94.3359 71.9945 95.3672 71.9945 96.7959V96.8281C71.9945 98.0205 71.4037 98.8047 69.2982 100.932L64.2064 106.131V108ZM81.5344 108H84.3059V92.499H81.5451L77.4953 95.3457V97.9561L81.3518 95.2275H81.5344V108Z" fill="white"/>
<path d="M115.867 108H118.52V105.024H120.604V102.736H118.52V92.499H114.599C112.494 95.7002 110.292 99.2666 108.283 102.758V105.024H115.867V108ZM110.861 102.801V102.64C112.365 100.008 114.159 97.1396 115.749 94.7119H115.91V102.801H110.861ZM128.791 108.387C132.142 108.387 134.495 106.185 134.495 102.962V102.94C134.495 99.9756 132.4 97.8271 129.51 97.8271C128.049 97.8271 126.846 98.4502 126.202 99.4922H126.019L126.449 94.7764H133.592V92.499H124.29L123.538 101.576H125.912C126.094 101.232 126.352 100.932 126.631 100.695C127.201 100.18 127.953 99.9219 128.823 99.9219C130.595 99.9219 131.863 101.189 131.863 102.994V103.016C131.863 104.842 130.617 106.12 128.801 106.12C127.212 106.12 126.041 105.11 125.837 103.843L125.826 103.768H123.269L123.28 103.907C123.484 106.453 125.622 108.387 128.791 108.387ZM143.057 108.387C146.419 108.387 148.815 106.088 148.815 102.94V102.919C148.815 99.9756 146.731 97.8057 143.755 97.8057C141.628 97.8057 140.275 98.8906 139.705 100.115H139.491C139.491 99.9971 139.501 99.8789 139.501 99.7607C139.62 96.7959 140.662 94.3896 143.121 94.3896C144.486 94.3896 145.442 95.0986 145.85 96.1836L145.893 96.291H148.611L148.589 96.1729C148.095 93.7988 145.968 92.1123 143.121 92.1123C139.222 92.1123 136.87 95.2061 136.87 100.427V100.448C136.87 106.034 139.748 108.387 143.057 108.387ZM139.974 102.973V102.951C139.974 101.2 141.317 99.9326 143.068 99.9326C144.829 99.9326 146.108 101.222 146.108 103.016V103.037C146.108 104.767 144.754 106.131 143.036 106.131C141.317 106.131 139.974 104.745 139.974 102.973ZM152.189 108H155.089L161.717 94.8086V92.499H150.932V94.7656H158.924V94.9375L152.189 108Z" fill="white"/>
<path d="M185.325 108H188.225L194.853 94.8086V92.499H184.068V94.7656H192.06V94.9375L185.325 108ZM202.857 108.312C206.423 108.312 208.905 106.464 208.905 103.811V103.789C208.905 101.802 207.465 100.266 205.392 99.8467V99.7822C207.165 99.3096 208.346 98.0098 208.346 96.3447V96.3232C208.346 93.9385 206.069 92.1875 202.857 92.1875C199.645 92.1875 197.368 93.9385 197.368 96.3232V96.3447C197.368 98.0098 198.549 99.3096 200.322 99.7822V99.8467C198.259 100.266 196.809 101.802 196.809 103.789V103.811C196.809 106.464 199.291 108.312 202.857 108.312ZM202.857 98.9014C201.235 98.9014 200.107 97.9561 200.107 96.6025V96.5811C200.107 95.2275 201.235 94.2822 202.857 94.2822C204.479 94.2822 205.607 95.2275 205.607 96.5811V96.6025C205.607 97.9561 204.479 98.9014 202.857 98.9014ZM202.857 106.195C200.999 106.195 199.677 105.121 199.677 103.628V103.606C199.677 102.103 200.977 101.018 202.857 101.018C204.726 101.018 206.037 102.103 206.037 103.606V103.628C206.037 105.121 204.715 106.195 202.857 106.195ZM217.048 92.1123C213.686 92.1123 211.29 94.4111 211.29 97.5586V97.5801C211.29 100.523 213.374 102.693 216.35 102.693C218.477 102.693 219.83 101.608 220.4 100.384H220.615C220.615 100.502 220.604 100.62 220.604 100.738C220.486 103.703 219.444 106.109 216.984 106.109C215.62 106.109 214.663 105.4 214.255 104.315L214.223 104.208H211.495L211.516 104.326C212.01 106.7 214.137 108.387 216.984 108.387C220.883 108.387 223.236 105.293 223.236 100.072V100.051C223.236 94.4648 220.357 92.1123 217.048 92.1123ZM217.038 100.566C215.276 100.566 213.997 99.2773 213.997 97.4834V97.4619C213.997 95.7324 215.362 94.3682 217.07 94.3682C218.788 94.3682 220.131 95.7539 220.131 97.5264V97.5479C220.131 99.2988 218.788 100.566 217.038 100.566ZM231.841 108.387C235.203 108.387 237.599 106.088 237.599 102.94V102.919C237.599 99.9756 235.515 97.8057 232.539 97.8057C230.412 97.8057 229.059 98.8906 228.489 100.115H228.275C228.275 99.9971 228.285 99.8789 228.285 99.7607C228.404 96.7959 229.446 94.3896 231.905 94.3896C233.27 94.3896 234.226 95.0986 234.634 96.1836L234.677 96.291H237.395L237.373 96.1729C236.879 93.7988 234.752 92.1123 231.905 92.1123C228.006 92.1123 225.654 95.2061 225.654 100.427V100.448C225.654 106.034 228.532 108.387 231.841 108.387ZM228.758 102.973V102.951C228.758 101.2 230.101 99.9326 231.852 99.9326C233.613 99.9326 234.892 101.222 234.892 103.016V103.037C234.892 104.767 233.538 106.131 231.82 106.131C230.101 106.131 228.758 104.745 228.758 102.973Z" fill="white"/>
<path d="M263.606 100.824H265.572L265.443 98.1494L267.57 99.5459L268.558 98.0098L266.131 96.7207L268.558 95.4316L267.57 93.8955L265.443 95.292L265.572 92.6279H263.606L263.746 95.3027L261.597 93.9062L260.62 95.4424L263.048 96.7207L260.62 98.0098L261.597 99.5459L263.746 98.1387L263.606 100.824ZM273.877 100.824H275.842L275.713 98.1494L277.84 99.5459L278.829 98.0098L276.401 96.7207L278.829 95.4316L277.84 93.8955L275.713 95.292L275.842 92.6279H273.877L274.016 95.3027L271.868 93.9062L270.89 95.4424L273.318 96.7207L270.89 98.0098L271.868 99.5459L274.016 98.1387L273.877 100.824ZM284.147 100.824H286.113L285.984 98.1494L288.111 99.5459L289.099 98.0098L286.671 96.7207L289.099 95.4316L288.111 93.8955L285.984 95.292L286.113 92.6279H284.147L284.287 95.3027L282.138 93.9062L281.161 95.4424L283.588 96.7207L281.161 98.0098L282.138 99.5459L284.287 98.1387L284.147 100.824ZM294.417 100.824H296.383L296.254 98.1494L298.381 99.5459L299.369 98.0098L296.942 96.7207L299.369 95.4316L298.381 93.8955L296.254 95.292L296.383 92.6279H294.417L294.557 95.3027L292.408 93.9062L291.431 95.4424L293.859 96.7207L291.431 98.0098L292.408 99.5459L294.557 98.1387L294.417 100.824Z" fill="white"/>
<path d="M37.5215 142H38.5645L41.6816 133.545H40.5742L38.0898 140.635H37.9961L35.5117 133.545H34.4043L37.5215 142ZM43.8836 142.111C44.7332 142.111 45.3953 141.742 45.7937 141.068H45.8875V142H46.907V137.676C46.907 136.363 46.0457 135.572 44.5047 135.572C43.157 135.572 42.1961 136.24 42.032 137.23L42.0262 137.266H43.0457L43.0516 137.248C43.2156 136.756 43.7137 136.475 44.4695 136.475C45.4129 136.475 45.8875 136.896 45.8875 137.676V138.25L44.077 138.361C42.6062 138.449 41.7742 139.1 41.7742 140.225V140.236C41.7742 141.385 42.6824 142.111 43.8836 142.111ZM42.8172 140.213V140.201C42.8172 139.574 43.2391 139.234 44.2 139.176L45.8875 139.07V139.645C45.8875 140.547 45.1316 141.227 44.0945 141.227C43.3621 141.227 42.8172 140.852 42.8172 140.213ZM48.5289 142H49.5484V133.176H48.5289V142ZM51.7445 134.465C52.1313 134.465 52.4477 134.148 52.4477 133.762C52.4477 133.375 52.1313 133.059 51.7445 133.059C51.3578 133.059 51.0414 133.375 51.0414 133.762C51.0414 134.148 51.3578 134.465 51.7445 134.465ZM51.2289 142H52.2484V135.684H51.2289V142ZM56.2023 142.111C57.0812 142.111 57.7844 141.695 58.1711 140.992H58.2648V142H59.2844V133.176H58.2648V136.68H58.1711C57.8254 136.006 57.0695 135.572 56.2023 135.572C54.5969 135.572 53.5539 136.855 53.5539 138.836V138.848C53.5539 140.816 54.6027 142.111 56.2023 142.111ZM56.4367 141.209C55.2824 141.209 54.5969 140.318 54.5969 138.848V138.836C54.5969 137.365 55.2824 136.475 56.4367 136.475C57.5852 136.475 58.2883 137.377 58.2883 138.836V138.848C58.2883 140.307 57.5852 141.209 56.4367 141.209ZM66.2605 142.047C66.4598 142.047 66.6531 142.023 66.8523 141.988V141.121C66.6648 141.139 66.5652 141.145 66.3836 141.145C65.7273 141.145 65.4695 140.846 65.4695 140.102V136.527H66.8523V135.684H65.4695V134.049H64.4148V135.684H63.4188V136.527H64.4148V140.359C64.4148 141.566 64.9598 142.047 66.2605 142.047ZM68.1344 142H69.1539V138.262C69.1539 137.154 69.7926 136.475 70.8004 136.475C71.8082 136.475 72.277 137.02 72.277 138.156V142H73.2965V137.91C73.2965 136.41 72.5055 135.572 71.0875 135.572C70.1559 135.572 69.5641 135.965 69.2477 136.633H69.1539V133.176H68.1344V142ZM74.8422 142H75.8617V138.086C75.8617 137.16 76.5531 136.545 77.5258 136.545C77.7484 136.545 77.9418 136.568 78.1527 136.604V135.613C78.0531 135.596 77.8363 135.572 77.643 135.572C76.7875 135.572 76.1957 135.959 75.9555 136.621H75.8617V135.684H74.8422V142ZM81.2277 142.111C82.1535 142.111 82.7922 141.73 83.1027 141.057H83.1965V142H84.216V135.684H83.1965V139.422C83.1965 140.529 82.6047 141.209 81.4914 141.209C80.4836 141.209 80.0734 140.664 80.0734 139.527V135.684H79.0539V139.773C79.0539 141.268 79.7922 142.111 81.2277 142.111Z" fill="#515558"/>
<path d="M39.6602 162.299C42.4639 162.299 44.1514 159.741 44.1514 155.663V155.646C44.1514 151.567 42.4639 149.019 39.6602 149.019C36.8564 149.019 35.1865 151.567 35.1865 155.646V155.663C35.1865 159.741 36.8564 162.299 39.6602 162.299ZM39.6602 160.919C37.8408 160.919 36.7773 158.897 36.7773 155.663V155.646C36.7773 152.411 37.8408 150.407 39.6602 150.407C41.4795 150.407 42.5605 152.411 42.5605 155.646V155.663C42.5605 158.897 41.4795 160.919 39.6602 160.919ZM49.5555 162H51.1375V149.317H49.5643L46.1893 151.743V153.413L49.4148 151.075H49.5555V162ZM58.5631 148.764H57.0953L53.0875 165.164H54.5553L58.5631 148.764ZM59.6869 162H67.8959V160.576H61.8842V160.436L64.767 157.456C67.0609 155.092 67.685 154.037 67.685 152.587V152.569C67.685 150.521 65.9887 149.019 63.7738 149.019C61.348 149.019 59.6078 150.636 59.599 152.886L59.6166 152.895L61.1283 152.903L61.1371 152.886C61.1371 151.392 62.1479 150.398 63.6684 150.398C65.1625 150.398 66.0678 151.4 66.0678 152.736V152.754C66.0678 153.861 65.5932 154.521 63.976 156.27L59.6869 160.91V162ZM74.5832 162.211C77.2727 162.211 79.1887 160.699 79.1887 158.572V158.555C79.1887 156.99 78.09 155.689 76.4641 155.312V155.276C77.8527 154.846 78.7316 153.791 78.7316 152.455V152.438C78.7316 150.521 76.9826 149.106 74.5832 149.106C72.1838 149.106 70.4348 150.521 70.4348 152.438V152.455C70.4348 153.791 71.3137 154.846 72.7023 155.276V155.312C71.0764 155.689 69.9777 156.99 69.9777 158.555V158.572C69.9777 160.699 71.8937 162.211 74.5832 162.211ZM74.5832 154.688C73.0539 154.688 72.008 153.817 72.008 152.587V152.569C72.008 151.339 73.0539 150.469 74.5832 150.469C76.1125 150.469 77.1584 151.339 77.1584 152.569V152.587C77.1584 153.817 76.1125 154.688 74.5832 154.688ZM74.5832 160.831C72.8342 160.831 71.5861 159.847 71.5861 158.476V158.458C71.5861 157.069 72.8254 156.076 74.5832 156.076C76.341 156.076 77.5803 157.069 77.5803 158.458V158.476C77.5803 159.847 76.3322 160.831 74.5832 160.831Z" fill="white"/>
<path d="M146.482 142.199C148.281 142.199 149.617 141.197 149.898 139.65V139.639H148.832L148.82 139.65C148.557 140.623 147.66 141.227 146.482 141.227C144.854 141.227 143.834 139.896 143.834 137.781V137.77C143.834 135.654 144.854 134.318 146.477 134.318C147.643 134.318 148.545 135.004 148.826 136.088L148.832 136.1H149.893L149.898 136.088C149.646 134.465 148.258 133.346 146.477 133.346C144.18 133.346 142.75 135.045 142.75 137.77V137.781C142.75 140.5 144.186 142.199 146.482 142.199ZM153.811 142H154.854L157.971 133.545H156.864L154.38 140.635H154.286L151.802 133.545H150.694L153.811 142ZM161.597 142H162.64L165.757 133.545H164.65L162.166 140.635H162.072L159.587 133.545H158.48L161.597 142Z" fill="#515558"/>
<path d="M147.897 162.299C150.455 162.299 152.336 160.462 152.336 157.931V157.913C152.336 155.479 150.561 153.668 148.179 153.668C146.465 153.668 145.27 154.591 144.804 155.628H144.637C144.637 155.531 144.637 155.426 144.646 155.329C144.742 152.684 145.683 150.434 147.985 150.434C149.269 150.434 150.156 151.093 150.543 152.156L150.578 152.253H152.169L152.143 152.139C151.712 150.267 150.13 149.019 148.003 149.019C144.927 149.019 143.125 151.55 143.125 155.874V155.892C143.125 160.664 145.577 162.299 147.897 162.299ZM145.015 157.913V157.904C145.015 156.252 146.263 155.048 147.906 155.048C149.55 155.048 150.745 156.261 150.745 157.948V157.966C150.745 159.609 149.471 160.901 147.88 160.901C146.271 160.901 145.015 159.583 145.015 157.913ZM158.724 149.019C156.167 149.019 154.286 150.855 154.286 153.387V153.404C154.286 155.839 156.061 157.649 158.443 157.649C160.157 157.649 161.352 156.727 161.818 155.689H161.985C161.985 155.786 161.985 155.892 161.976 155.988C161.88 158.634 160.939 160.884 158.637 160.884C157.353 160.884 156.466 160.225 156.079 159.161L156.044 159.064H154.453L154.479 159.179C154.91 161.051 156.492 162.299 158.619 162.299C161.695 162.299 163.497 159.768 163.497 155.443V155.426C163.497 150.653 161.045 149.019 158.724 149.019ZM158.716 156.27C157.072 156.27 155.877 155.057 155.877 153.369V153.352C155.877 151.708 157.151 150.416 158.742 150.416C160.35 150.416 161.607 151.734 161.607 153.404V153.413C161.607 155.065 160.359 156.27 158.716 156.27ZM169.982 162.299C172.786 162.299 174.473 159.741 174.473 155.663V155.646C174.473 151.567 172.786 149.019 169.982 149.019C167.178 149.019 165.508 151.567 165.508 155.646V155.663C165.508 159.741 167.178 162.299 169.982 162.299ZM169.982 160.919C168.163 160.919 167.099 158.897 167.099 155.663V155.646C167.099 152.411 168.163 150.407 169.982 150.407C171.801 150.407 172.882 152.411 172.882 155.646V155.663C172.882 158.897 171.801 160.919 169.982 160.919Z" fill="white"/>
<path d="M296 118L296.602 119.627C299.134 126.47 304.53 131.866 311.373 134.398L313 135L311.373 135.602C304.53 138.134 299.134 143.53 296.602 150.373L296 152L295.398 150.373C292.866 143.53 287.47 138.134 280.627 135.602L279 135L280.627 134.398C287.47 131.866 292.866 126.47 295.398 119.627L296 118Z" fill="#585A5E"/>
<path d="M238 44C239.886 49.0962 243.904 53.1142 249 55C243.904 56.8858 239.886 60.9038 238 66C236.114 60.9038 232.096 56.8858 227 55C232.096 53.1142 236.114 49.0962 238 44Z" fill="#585A5E"/>
</g>
<defs>
<clipPath id="clip0_1_219">
<rect width="335" height="200" fill="white"/>
</clipPath>
</defs>
</svg>
