<svg width="355" height="337" viewBox="0 0 355 337" fill="none" xmlns="http://www.w3.org/2000/svg">
<g filter="url(#filter0_b_1_163)">
<rect x="41.4111" width="270" height="160" rx="20" transform="rotate(15 41.4111 0)" fill="url(#paint0_linear_1_163)" fill-opacity="0.7"/>
<rect x="41.5878" y="0.306186" width="269.5" height="159.5" rx="19.75" transform="rotate(15 41.5878 0.306186)" stroke="#C3C5C9" stroke-width="0.5"/>
</g>
<path d="M35.2093 113.409C36.5125 113.758 37.6748 113.291 38.1788 112.225L38.1811 112.217L37.4085 112.01L37.3977 112.016C37.0179 112.669 36.2513 112.933 35.3981 112.704C34.2181 112.388 33.7376 111.226 34.1482 109.694L34.1505 109.685C34.5611 108.153 35.559 107.383 36.7348 107.698C37.5796 107.925 38.1002 108.596 38.0935 109.436L38.0955 109.446L38.8638 109.652L38.8703 109.644C39.0028 108.42 38.2141 107.339 36.9236 106.994C35.2597 106.548 33.8941 107.501 33.3652 109.475L33.363 109.483C32.8352 111.453 33.5453 112.963 35.2093 113.409ZM39.8563 114.585C40.4718 114.75 41.0231 114.612 41.4426 114.201L41.5105 114.219L41.3296 114.894L42.0682 115.092L42.9076 111.959C43.1624 111.008 42.692 110.268 41.5756 109.969C40.5993 109.707 39.7735 110.005 39.4624 110.69L39.4513 110.714L40.1899 110.912L40.1976 110.901C40.412 110.576 40.8274 110.469 41.3749 110.616C42.0584 110.799 42.3203 111.197 42.169 111.761L42.0576 112.177L40.7243 111.906C39.6418 111.685 38.9128 111.994 38.6944 112.809L38.6921 112.818C38.4692 113.65 38.9861 114.352 39.8563 114.585ZM39.4523 113.003L39.4545 112.995C39.5762 112.54 39.9478 112.376 40.6553 112.52L41.8983 112.771L41.7869 113.187C41.6117 113.841 40.9322 114.187 40.1809 113.985C39.6503 113.843 39.3283 113.466 39.4523 113.003ZM43.1283 115.376L43.8669 115.574L44.6267 112.738C44.8064 112.067 45.4267 111.756 46.1313 111.945C46.2926 111.988 46.4281 112.043 46.5741 112.109L46.7663 111.392C46.6976 111.36 46.5451 111.3 46.405 111.263C45.7853 111.097 45.2815 111.262 44.9789 111.695L44.911 111.677L45.093 110.998L44.3544 110.8L43.1283 115.376ZM47.6899 116.685C48.3266 116.855 48.9168 116.69 49.3334 116.256L49.4013 116.274L49.2057 117.004L49.9443 117.202L51.6572 110.809L50.9186 110.612L50.2384 113.15L50.1705 113.132C50.0509 112.576 49.5875 112.116 48.9592 111.947C47.7962 111.636 46.7915 112.363 46.4071 113.798L46.4048 113.806C46.0226 115.232 46.5311 116.374 47.6899 116.685ZM48.0349 116.076C47.1986 115.852 46.8749 115.074 47.1604 114.009L47.1626 114C47.4481 112.935 48.1177 112.422 48.9539 112.647C49.7859 112.869 50.1201 113.66 49.8369 114.717L49.8346 114.725C49.5514 115.782 48.8668 116.299 48.0349 116.076Z" fill="white"/>
<path d="M31.1903 137.024L32.6165 137.406L33.1243 135.511L34.4383 135.863L34.7745 134.608L33.4605 134.256L35.1696 127.878L33.0632 127.313C31.2202 128.935 29.2171 130.812 27.3857 132.628L27.0496 133.883L31.6981 135.129L31.1903 137.024ZM28.7983 133.035L28.8231 132.943C30.2479 131.534 31.9072 129.99 33.3429 128.726L33.4288 128.749L32.047 133.906L28.7983 133.035ZM35.4434 138.163L41.8615 139.883L42.1994 138.622L37.7952 137.442L37.8306 137.31L40.3908 135.837C42.5808 134.584 43.3055 133.886 43.5957 132.803L43.601 132.784C44.0221 131.212 43.0172 129.733 41.241 129.257C39.3262 128.744 37.6501 129.611 37.1764 131.352L37.186 131.369L38.5727 131.741L38.5846 131.723C38.8641 130.679 39.7648 130.17 40.8345 130.457C41.8777 130.737 42.3342 131.595 42.0848 132.526L42.0795 132.546C41.8725 133.318 41.3784 133.71 39.7651 134.686L35.7123 137.16L35.4434 138.163ZM46.7526 141.441C48.7599 141.979 50.5339 141.011 51.0576 139.056L51.0611 139.043C51.5512 137.214 50.6276 135.537 48.8382 135.057C47.96 134.822 47.1148 134.992 46.5404 135.525L46.4281 135.494L47.5325 132.535L51.9103 133.708L52.2465 132.453L46.7066 130.969L44.7485 136.375L46.0229 136.716C46.1935 136.529 46.3949 136.384 46.6073 136.278C47.0757 136.036 47.6169 135.997 48.198 136.153C49.3469 136.461 49.9559 137.515 49.641 138.691L49.6375 138.704C49.3172 139.899 48.2738 140.518 47.0984 140.203C46.0552 139.924 45.4745 139.053 45.5737 138.181L45.5813 138.127L44.1947 137.755L44.1783 137.843C43.8963 139.423 44.8773 140.939 46.7526 141.441ZM55.2646 143.722C57.2653 144.258 59.0865 143.246 59.5996 141.331L59.6031 141.318C60.0914 139.495 59.1516 137.8 57.3357 137.313C56.035 136.965 54.9943 137.415 54.4391 138.087L54.3137 138.053C54.3331 137.981 54.3526 137.908 54.3787 137.837C54.9608 135.955 56.0471 134.569 57.6516 134.999C58.5496 135.239 59.0464 135.868 59.1159 136.665L59.1247 136.738L60.5905 137.131L60.5986 137.048C60.6673 135.524 59.6781 134.197 57.9944 133.746C55.6371 133.114 53.7211 134.639 52.8577 137.861L52.8542 137.874C51.9147 141.381 53.3498 143.209 55.2646 143.722ZM54.1389 139.868L54.1407 139.861C54.4485 138.712 55.543 138.114 56.6854 138.42C57.8409 138.729 58.4464 139.798 58.1332 140.966L58.1297 140.979C57.8236 142.122 56.7 142.776 55.5841 142.477C54.4615 142.176 53.8275 141.03 54.1389 139.868ZM66.1042 146.379L67.5833 146.775L70.1363 137.247L68.6572 136.851L65.6704 137.961L65.2812 139.414L68.1363 138.346L68.2485 138.376L66.1042 146.379ZM69.9941 147.421L76.4122 149.141L76.7502 147.88L72.346 146.7L72.3813 146.567L74.9415 145.095C77.1315 143.842 77.8562 143.144 78.1464 142.061L78.1517 142.042C78.5728 140.47 77.5679 138.991 75.7917 138.515C73.8769 138.002 72.2008 138.869 71.7271 140.61L71.7367 140.627L73.1234 140.998L73.1353 140.98C73.4148 139.937 74.3155 139.428 75.3852 139.715C76.4285 139.994 76.885 140.853 76.6355 141.784L76.6302 141.804C76.4232 142.576 75.9291 142.968 74.3158 143.944L70.263 146.417L69.9941 147.421ZM82.2633 150.709L83.6895 151.091L84.1973 149.196L85.5113 149.548L85.8474 148.293L84.5334 147.941L86.2426 141.563L84.1362 140.998C82.2932 142.62 80.29 144.497 78.4587 146.313L78.1225 147.568L82.771 148.814L82.2633 150.709ZM79.8712 146.72L79.896 146.628C81.3209 145.219 82.9802 143.675 84.4159 142.411L84.5017 142.434L83.1199 147.591L79.8712 146.72ZM89.7559 152.964C91.7632 153.502 93.5372 152.533 94.0609 150.579L94.0645 150.566C94.5545 148.737 93.6309 147.06 91.8415 146.58C90.9633 146.345 90.1181 146.515 89.5437 147.047L89.4315 147.017L90.5359 144.058L94.9137 145.231L95.2498 143.976L89.7099 142.492L87.7518 147.898L89.0262 148.239C89.1968 148.051 89.3983 147.907 89.6106 147.801C90.079 147.559 90.6202 147.52 91.2013 147.675C92.3502 147.983 92.9593 149.038 92.6443 150.214L92.6408 150.227C92.3206 151.422 91.2771 152.041 90.1017 151.726C89.0585 151.447 88.4778 150.576 88.5771 149.704L88.5846 149.649L87.198 149.278L87.1816 149.365C86.8996 150.946 87.8807 152.461 89.7559 152.964ZM101.525 156.061C103.545 156.602 105.293 155.811 105.732 154.173L105.736 154.16C106.093 152.826 105.382 151.73 104.016 151.229L104.024 151.196C105.252 151.263 106.31 150.697 106.626 149.516L106.63 149.502C107.024 148.03 106.055 146.68 104.16 146.173C102.298 145.674 100.746 146.397 100.17 147.963L100.144 148.034L101.531 148.405L101.555 148.341C101.888 147.468 102.778 147.104 103.835 147.388C104.911 147.676 105.387 148.384 105.139 149.308L105.135 149.321C104.898 150.206 103.987 150.648 102.898 150.357L101.782 150.058L101.474 151.206L102.636 151.518C103.904 151.858 104.522 152.667 104.234 153.743L104.23 153.757C103.979 154.694 103.018 155.137 101.856 154.826C100.674 154.509 100.038 153.688 100.177 152.798L100.188 152.73L98.775 152.352L98.7604 152.433C98.463 154.044 99.4912 155.516 101.525 156.061ZM106.618 157.234L113.036 158.954L113.374 157.693L108.97 156.513L109.005 156.381L111.566 154.908C113.756 153.655 114.48 152.958 114.77 151.875L114.776 151.855C115.197 150.283 114.192 148.804 112.416 148.328C110.501 147.815 108.825 148.682 108.351 150.424L108.361 150.44L109.747 150.812L109.759 150.794C110.039 149.751 110.94 149.242 112.009 149.528C113.053 149.808 113.509 150.666 113.26 151.597L113.254 151.617C113.047 152.39 112.553 152.781 110.94 153.757L106.887 156.231L106.618 157.234ZM117.987 160.528C120.179 161.116 122.021 159.55 122.844 156.48L122.847 156.466C123.67 153.396 122.856 151.125 120.664 150.538C118.465 149.949 116.631 151.51 115.809 154.58L115.805 154.593C114.982 157.664 115.788 159.939 117.987 160.528ZM118.316 159.3C117.035 158.957 116.673 157.324 117.297 154.993L117.301 154.98C117.925 152.649 119.052 151.43 120.333 151.773C121.607 152.114 121.98 153.736 121.355 156.066L121.351 156.08C120.727 158.411 119.59 159.642 118.316 159.3ZM126.479 162.804C128.671 163.391 130.513 161.825 131.336 158.755L131.34 158.742C132.162 155.671 131.348 153.401 129.156 152.814C126.957 152.224 125.123 153.785 124.301 156.856L124.297 156.869C123.474 159.939 124.28 162.215 126.479 162.804ZM126.808 161.576C125.527 161.232 125.165 159.6 125.789 157.269L125.793 157.256C126.418 154.925 127.544 153.705 128.825 154.048C130.099 154.39 130.472 156.011 129.847 158.342L129.844 158.355C129.219 160.686 128.082 161.917 126.808 161.576ZM139.451 166.032L140.878 166.414L141.385 164.519L142.699 164.871L143.036 163.617L141.722 163.265L143.431 156.886L141.324 156.322C139.481 157.944 137.478 159.82 135.647 161.637L135.311 162.891L139.959 164.137L139.451 166.032ZM137.059 162.044L137.084 161.951C138.509 160.543 140.168 158.998 141.604 157.734L141.69 157.757L140.308 162.914L137.059 162.044ZM146.944 168.287C148.951 168.825 150.725 167.857 151.249 165.902L151.253 165.889C151.743 164.06 150.819 162.383 149.03 161.904C148.151 161.668 147.306 161.838 146.732 162.371L146.62 162.341L147.724 159.381L152.102 160.554L152.438 159.3L146.898 157.815L144.94 163.221L146.214 163.563C146.385 163.375 146.586 163.231 146.799 163.125C147.267 162.882 147.808 162.843 148.389 162.999C149.538 163.307 150.147 164.362 149.832 165.537L149.829 165.55C149.509 166.745 148.465 167.365 147.29 167.05C146.247 166.77 145.666 165.9 145.765 165.028L145.773 164.973L144.386 164.601L144.37 164.689C144.088 166.269 145.069 167.785 146.944 168.287ZM154.277 170.005L155.756 170.401L158.309 160.873L156.83 160.476L153.843 161.587L153.454 163.04L156.309 161.972L156.421 162.002L154.277 170.005ZM158.167 171.047L164.585 172.767L164.923 171.505L160.518 170.325L160.554 170.193L163.114 168.721C165.304 167.467 166.029 166.77 166.319 165.687L166.324 165.667C166.745 164.096 165.74 162.616 163.964 162.14C162.049 161.627 160.373 162.494 159.9 164.236L159.909 164.253L161.296 164.624L161.308 164.606C161.587 163.563 162.488 163.054 163.558 163.341C164.601 163.62 165.057 164.479 164.808 165.41L164.803 165.429C164.596 166.202 164.102 166.593 162.488 167.569L158.435 170.043L158.167 171.047Z" fill="white"/>
<path d="M190.723 155.078C192.027 155.428 193.189 154.961 193.693 153.895L193.695 153.887L192.923 153.68L192.912 153.686C192.532 154.339 191.765 154.602 190.912 154.374C189.732 154.058 189.252 152.896 189.662 151.364L189.665 151.355C190.075 149.823 191.073 149.053 192.249 149.368C193.094 149.594 193.614 150.266 193.608 151.106L193.61 151.116L194.378 151.322L194.384 151.314C194.517 150.09 193.728 149.009 192.438 148.663C190.774 148.218 189.408 149.171 188.879 151.145L188.877 151.153C188.349 153.123 189.059 154.633 190.723 155.078ZM195.999 156.337L196.755 156.54L200.654 151.02L199.852 150.805L196.676 155.459L196.608 155.44L196.184 149.822L195.382 149.607L195.999 156.337ZM201.567 157.829L202.323 158.032L206.222 152.512L205.42 152.297L202.244 156.951L202.176 156.932L201.752 151.314L200.95 151.099L201.567 157.829Z" fill="white"/>
<path d="M187.049 174.66C187.27 173.835 186.794 172.999 185.962 172.776L185.948 172.773C185.116 172.55 184.279 173.033 184.058 173.858L184.054 173.872C183.832 174.704 184.315 175.541 185.147 175.764L185.16 175.767C185.992 175.99 186.823 175.505 187.046 174.673L187.049 174.66ZM193.204 176.309C193.425 175.484 192.948 174.648 192.116 174.425L192.103 174.422C191.271 174.199 190.434 174.682 190.213 175.508L190.209 175.521C189.986 176.353 190.47 177.19 191.302 177.413L191.315 177.416C192.147 177.639 192.977 177.154 193.2 176.322L193.204 176.309ZM199.359 177.958C199.58 177.133 199.103 176.297 198.271 176.074L198.258 176.071C197.426 175.848 196.589 176.331 196.367 177.157L196.364 177.17C196.141 178.002 196.624 178.839 197.456 179.062L197.47 179.066C198.302 179.289 199.132 178.803 199.355 177.971L199.359 177.958Z" fill="white"/>
<circle cx="261.536" cy="94.1816" r="12" transform="rotate(15 261.536 94.1816)" fill="#515558"/>
<circle cx="248.013" cy="90.5581" r="12" transform="rotate(15 248.013 90.5581)" fill="#E5F240" fill-opacity="0.7"/>
<g filter="url(#filter1_b_1_163)">
<rect x="51.9999" y="181.881" width="270" height="160" rx="20" transform="rotate(-15 51.9999 181.881)" fill="url(#paint1_linear_1_163)" fill-opacity="0.7"/>
<rect x="52.3061" y="182.058" width="269.5" height="159.5" rx="19.75" transform="rotate(-15 52.3061 182.058)" stroke="#C3C5C9" stroke-width="0.5"/>
</g>
<path d="M103.333 283.197C104.636 282.848 105.41 281.863 105.313 280.687L105.311 280.679L104.538 280.886L104.532 280.897C104.53 281.652 103.998 282.264 103.144 282.492C101.964 282.809 100.968 282.043 100.557 280.51L100.555 280.502C100.144 278.97 100.623 277.804 101.799 277.489C102.644 277.263 103.431 277.584 103.845 278.315L103.851 278.322L104.62 278.116L104.622 278.107C104.124 276.98 102.901 276.438 101.61 276.784C99.9465 277.23 99.2406 278.739 99.7695 280.712L99.7717 280.721C100.299 282.69 101.669 283.643 103.333 283.197ZM107.946 281.893C108.562 281.728 108.97 281.332 109.127 280.766L109.195 280.748L109.376 281.423L110.115 281.225L109.275 278.092C109.021 277.142 108.243 276.736 107.127 277.035C106.15 277.297 105.584 277.967 105.657 278.716L105.66 278.743L106.399 278.545L106.399 278.531C106.423 278.143 106.729 277.842 107.276 277.695C107.96 277.512 108.386 277.726 108.537 278.29L108.648 278.706L107.358 279.138C106.31 279.488 105.833 280.12 106.052 280.935L106.054 280.944C106.277 281.776 107.076 282.126 107.946 281.893ZM106.805 280.724L106.803 280.716C106.681 280.262 106.921 279.934 107.606 279.705L108.808 279.301L108.919 279.717C109.094 280.37 108.679 281.009 107.927 281.211C107.397 281.353 106.929 281.187 106.805 280.724ZM111.175 280.941L111.913 280.743L111.154 277.908C110.974 277.237 111.355 276.657 112.06 276.468C112.221 276.425 112.366 276.405 112.526 276.389L112.333 275.672C112.258 275.678 112.096 275.703 111.956 275.741C111.336 275.907 110.983 276.302 110.937 276.828L110.869 276.846L110.687 276.167L109.949 276.365L111.175 280.941ZM115.78 279.794C116.416 279.623 116.845 279.185 116.989 278.601L117.057 278.583L117.252 279.313L117.991 279.115L116.278 272.722L115.539 272.92L116.22 275.458L116.152 275.477C115.77 275.056 115.139 274.888 114.51 275.056C113.347 275.368 112.841 276.5 113.225 277.935L113.228 277.943C113.61 279.37 114.621 280.104 115.78 279.794ZM115.774 279.094C114.938 279.319 114.269 278.806 113.983 277.741L113.981 277.732C113.695 276.667 114.019 275.889 114.855 275.665C115.687 275.442 116.372 275.959 116.655 277.016L116.657 277.024C116.941 278.081 116.606 278.872 115.774 279.094Z" fill="white"/>
<path d="M111.66 305.658L113.087 305.276L112.579 303.38L113.893 303.028L113.557 301.774L112.243 302.126L110.533 295.747L108.427 296.312C107.642 298.638 106.846 301.265 106.168 303.754L106.504 305.008L111.152 303.763L111.66 305.658ZM107.595 303.4L107.57 303.307C108.099 301.375 108.764 299.208 109.376 297.395L109.461 297.372L110.843 302.529L107.595 303.4ZM115.913 304.518L122.331 302.798L121.994 301.537L117.589 302.717L117.554 302.585L119.035 300.03C120.305 297.85 120.584 296.883 120.294 295.8L120.288 295.78C119.867 294.209 118.257 293.43 116.481 293.906C114.566 294.419 113.548 296.008 114.009 297.753L114.025 297.763L115.412 297.391L115.413 297.37C115.134 296.326 115.659 295.435 116.729 295.149C117.772 294.869 118.597 295.384 118.846 296.315L118.852 296.335C119.059 297.108 118.826 297.694 117.917 299.346L115.644 303.514L115.913 304.518ZM127.346 301.702C129.354 301.164 130.406 299.439 129.882 297.484L129.879 297.471C129.389 295.642 127.75 294.651 125.961 295.131C125.083 295.366 124.435 295.936 124.204 296.684L124.092 296.714L123.569 293.599L127.946 292.426L127.61 291.172L122.07 292.656L123.078 298.317L124.352 297.975C124.406 297.727 124.508 297.502 124.639 297.304C124.924 296.86 125.373 296.555 125.954 296.4C127.103 296.092 128.158 296.701 128.473 297.876L128.476 297.889C128.796 299.084 128.202 300.142 127.027 300.457C125.984 300.737 125.046 300.273 124.696 299.469L124.675 299.417L123.288 299.789L123.318 299.873C123.864 301.383 125.471 302.205 127.346 301.702ZM135.858 299.422C137.859 298.885 138.93 297.098 138.417 295.183L138.413 295.17C137.925 293.348 136.263 292.349 134.448 292.836C133.147 293.184 132.471 294.094 132.326 294.954L132.2 294.988C132.181 294.915 132.162 294.842 132.149 294.768C131.712 292.847 131.959 291.103 133.564 290.673C134.462 290.433 135.206 290.729 135.665 291.384L135.709 291.443L137.175 291.05L137.141 290.975C136.438 289.62 134.918 288.966 133.234 289.417C130.877 290.049 129.98 292.327 130.844 295.549L130.847 295.563C131.787 299.069 133.944 299.935 135.858 299.422ZM132.956 296.646L132.955 296.64C132.647 295.491 133.295 294.425 134.438 294.119C135.593 293.81 136.652 294.432 136.965 295.601L136.968 295.614C137.274 296.756 136.629 297.885 135.513 298.184C134.39 298.484 133.268 297.809 132.956 296.646ZM146.574 296.303L148.053 295.906L145.5 286.378L144.021 286.774L141.99 289.23L142.379 290.682L144.318 288.33L144.43 288.3L146.574 296.303ZM150.464 295.26L156.882 293.541L156.544 292.279L152.14 293.459L152.105 293.327L153.586 290.772C154.856 288.592 155.134 287.625 154.844 286.542L154.839 286.523C154.418 284.951 152.808 284.172 151.032 284.648C149.117 285.161 148.099 286.75 148.559 288.495L148.576 288.505L149.963 288.133L149.964 288.112C149.685 287.069 150.21 286.178 151.28 285.891C152.323 285.611 153.148 286.127 153.397 287.058L153.402 287.077C153.609 287.85 153.377 288.436 152.468 290.088L150.195 294.257L150.464 295.26ZM162.733 291.973L164.159 291.591L163.652 289.696L164.966 289.343L164.63 288.089L163.316 288.441L161.606 282.062L159.5 282.627C158.715 284.953 157.919 287.58 157.241 290.069L157.577 291.323L162.225 290.078L162.733 291.973ZM158.667 289.715L158.643 289.622C159.172 287.69 159.837 285.523 160.449 283.71L160.534 283.687L161.916 288.844L158.667 289.715ZM170.35 290.18C172.357 289.642 173.409 287.916 172.885 285.962L172.882 285.948C172.392 284.119 170.753 283.129 168.964 283.608C168.086 283.844 167.439 284.413 167.208 285.162L167.095 285.192L166.572 282.077L170.95 280.904L170.614 279.649L165.074 281.133L166.081 286.794L167.355 286.453C167.409 286.205 167.512 285.979 167.643 285.781C167.927 285.337 168.376 285.033 168.957 284.877C170.106 284.569 171.161 285.178 171.476 286.353L171.479 286.367C171.8 287.562 171.206 288.62 170.03 288.935C168.987 289.214 168.049 288.751 167.699 287.946L167.678 287.895L166.291 288.266L166.321 288.35C166.867 289.86 168.474 290.682 170.35 290.18ZM182.09 286.977C184.111 286.436 185.229 284.876 184.79 283.239L184.787 283.226C184.429 281.892 183.265 281.298 181.832 281.548L181.823 281.515C182.919 280.959 183.552 279.94 183.236 278.758L183.232 278.745C182.838 277.272 181.324 276.588 179.429 277.096C177.567 277.595 176.584 278.998 176.868 280.641L176.881 280.715L178.268 280.344L178.257 280.276C178.109 279.353 178.698 278.594 179.754 278.311C180.83 278.022 181.596 278.398 181.844 279.322L181.847 279.335C182.085 280.22 181.517 281.059 180.427 281.351L179.311 281.65L179.619 282.799L180.781 282.487C182.049 282.147 182.989 282.54 183.278 283.616L183.281 283.629C183.532 284.567 182.922 285.431 181.76 285.742C180.578 286.059 179.616 285.666 179.292 284.825L179.267 284.761L177.854 285.14L177.882 285.217C178.43 286.762 180.057 287.522 182.09 286.977ZM187.088 285.447L193.506 283.727L193.168 282.466L188.764 283.646L188.729 283.514L190.21 280.959C191.48 278.778 191.758 277.812 191.468 276.729L191.463 276.709C191.042 275.138 189.432 274.359 187.656 274.835C185.741 275.348 184.723 276.937 185.183 278.682L185.2 278.692L186.587 278.32L186.588 278.299C186.309 277.255 186.834 276.364 187.904 276.078C188.947 275.798 189.772 276.313 190.021 277.244L190.026 277.264C190.233 278.037 190.001 278.622 189.092 280.274L186.819 284.443L187.088 285.447ZM198.581 282.615C200.773 282.028 201.585 279.751 200.762 276.68L200.759 276.667C199.936 273.597 198.096 272.037 195.904 272.625C193.705 273.214 192.897 275.483 193.72 278.553L193.724 278.566C194.546 281.637 196.382 283.204 198.581 282.615ZM198.252 281.387C196.971 281.73 195.84 280.497 195.216 278.166L195.212 278.153C194.588 275.822 194.954 274.203 196.235 273.86C197.509 273.518 198.642 274.736 199.267 277.067L199.27 277.08C199.895 279.411 199.526 281.046 198.252 281.387ZM207.073 280.34C209.265 279.752 210.077 277.475 209.255 274.405L209.251 274.392C208.428 271.321 206.588 269.762 204.396 270.349C202.197 270.938 201.39 273.207 202.212 276.278L202.216 276.291C203.039 279.361 204.874 280.929 207.073 280.34ZM206.744 279.112C205.463 279.455 204.333 278.222 203.708 275.891L203.705 275.878C203.08 273.547 203.446 271.927 204.727 271.584C206.001 271.243 207.134 272.461 207.759 274.791L207.762 274.805C208.387 277.135 208.018 278.77 206.744 279.112ZM219.921 276.649L221.348 276.267L220.84 274.372L222.154 274.02L221.818 272.765L220.504 273.117L218.794 266.739L216.688 267.303C215.903 269.63 215.107 272.256 214.429 274.745L214.765 276L219.414 274.754L219.921 276.649ZM215.856 274.391L215.831 274.299C216.36 272.366 217.025 270.199 217.637 268.387L217.722 268.364L219.104 273.521L215.856 274.391ZM227.538 274.856C229.545 274.318 230.597 272.593 230.074 270.638L230.07 270.625C229.58 268.796 227.942 267.805 226.152 268.285C225.274 268.52 224.627 269.09 224.396 269.838L224.283 269.868L223.76 266.753L228.138 265.58L227.802 264.325L222.262 265.81L223.269 271.471L224.543 271.129C224.597 270.881 224.7 270.656 224.831 270.458C225.115 270.013 225.564 269.709 226.145 269.553C227.294 269.246 228.349 269.855 228.664 271.03L228.668 271.043C228.988 272.238 228.394 273.296 227.218 273.611C226.175 273.891 225.237 273.427 224.887 272.622L224.866 272.571L223.48 272.943L223.509 273.027C224.055 274.537 225.663 275.359 227.538 274.856ZM234.747 272.677L236.226 272.28L233.673 262.752L232.193 263.149L230.162 265.604L230.551 267.056L232.49 264.704L232.602 264.674L234.747 272.677ZM238.636 271.635L245.055 269.915L244.717 268.654L240.312 269.834L240.277 269.702L241.758 267.146C243.028 264.966 243.307 264 243.017 262.917L243.011 262.897C242.59 261.325 240.98 260.547 239.204 261.022C237.289 261.536 236.271 263.125 236.732 264.87L236.749 264.879L238.135 264.508L238.137 264.486C237.857 263.443 238.383 262.552 239.452 262.265C240.496 261.986 241.32 262.501 241.569 263.432L241.575 263.452C241.782 264.224 241.55 264.81 240.64 266.462L238.368 270.631L238.636 271.635Z" fill="white"/>
<path d="M258.847 241.527C260.15 241.178 260.924 240.193 260.827 239.018L260.825 239.009L260.052 239.216L260.046 239.227C260.044 239.983 259.512 240.594 258.659 240.822C257.478 241.139 256.482 240.373 256.071 238.841L256.069 238.832C255.658 237.3 256.137 236.134 257.313 235.819C258.158 235.593 258.945 235.914 259.359 236.645L259.365 236.652L260.134 236.446L260.136 236.437C259.638 235.31 258.415 234.769 257.124 235.114C255.461 235.56 254.755 237.069 255.284 239.043L255.286 239.051C255.814 241.021 257.183 241.973 258.847 241.527ZM264.046 239.98L264.801 239.777L265.418 233.047L264.616 233.262L264.192 238.88L264.124 238.898L260.948 234.244L260.146 234.459L264.046 239.98ZM269.614 238.488L270.369 238.285L270.986 231.555L270.184 231.77L269.76 237.388L269.692 237.406L266.516 232.752L265.714 232.967L269.614 238.488Z" fill="white"/>
<path d="M265.456 260.322C265.235 259.497 264.404 259.012 263.572 259.235L263.559 259.238C262.727 259.461 262.244 260.298 262.465 261.124L262.469 261.137C262.691 261.969 263.529 262.452 264.361 262.229L264.374 262.226C265.206 262.003 265.683 261.167 265.46 260.335L265.456 260.322ZM271.611 258.673C271.39 257.848 270.559 257.363 269.727 257.586L269.714 257.589C268.882 257.812 268.399 258.649 268.62 259.475L268.623 259.488C268.846 260.32 269.683 260.803 270.515 260.58L270.529 260.577C271.361 260.354 271.837 259.518 271.614 258.686L271.611 258.673ZM277.766 257.024C277.544 256.199 276.714 255.713 275.882 255.936L275.869 255.94C275.037 256.163 274.553 257 274.774 257.825L274.778 257.839C275.001 258.671 275.838 259.154 276.67 258.931L276.683 258.928C277.515 258.705 277.992 257.869 277.769 257.037L277.766 257.024Z" fill="white"/>
<circle cx="289.724" cy="153.383" r="12" transform="rotate(-15 289.724 153.383)" fill="#515558"/>
<circle cx="276.201" cy="157.006" r="12" transform="rotate(-15 276.201 157.006)" fill="#E5F240" fill-opacity="0.7"/>
<defs>
<filter id="filter0_b_1_163" x="-7.38245" y="-7.38245" width="316.976" height="239.194" filterUnits="userSpaceOnUse" color-interpolation-filters="sRGB">
<feFlood flood-opacity="0" result="BackgroundImageFix"/>
<feGaussianBlur in="BackgroundImageFix" stdDeviation="6"/>
<feComposite in2="SourceAlpha" operator="in" result="effect1_backgroundBlur_1_163"/>
<feBlend mode="normal" in="SourceGraphic" in2="effect1_backgroundBlur_1_163" result="shape"/>
</filter>
<filter id="filter1_b_1_163" x="44.6175" y="104.618" width="316.976" height="239.194" filterUnits="userSpaceOnUse" color-interpolation-filters="sRGB">
<feFlood flood-opacity="0" result="BackgroundImageFix"/>
<feGaussianBlur in="BackgroundImageFix" stdDeviation="6"/>
<feComposite in2="SourceAlpha" operator="in" result="effect1_backgroundBlur_1_163"/>
<feBlend mode="normal" in="SourceGraphic" in2="effect1_backgroundBlur_1_163" result="shape"/>
</filter>
<linearGradient id="paint0_linear_1_163" x1="311.411" y1="0" x2="41.4111" y2="152.5" gradientUnits="userSpaceOnUse">
<stop stop-color="#414347"/>
<stop offset="1" stop-color="#414347" stop-opacity="0"/>
</linearGradient>
<linearGradient id="paint1_linear_1_163" x1="322" y1="181.881" x2="52" y2="334.381" gradientUnits="userSpaceOnUse">
<stop stop-color="#414347"/>
<stop offset="1" stop-color="#414347" stop-opacity="0"/>
</linearGradient>
</defs>
</svg>
